<svg width="100px" height="100px" viewBox="0 0 176 204" version="1.1" xmlns="http://www.w3.org/2000/svg" xmlns:xlink="http://www.w3.org/1999/xlink">
    <defs>
        <polygon id="path-1" points="200.521284 177.858824 200.521284 76.2867647 112.99945 25.8558824 25.4776147 76.2867647 25.4776147 177.858824 112.99945 228.289706"></polygon>
    </defs>
    <g id="Page-1" stroke="none" stroke-width="1" fill="none" fill-rule="evenodd">
        <g id="logo-symphonyrm-copy" transform="translate(-25.000000, -25.000000)">
            <g id="Group">
                <g id="Oval">
                    <mask id="mask-2" fill="white">
                        <use xlink:href="#path-1"></use>
                    </mask>
                    <use id="Mask" fill="#304377" xlink:href="#path-1"></use>
                    <path d="M188.644055,161.90732 C189.007938,144.368219 190.638624,91.5271455 191.328933,61.2895947 C173.911653,50.3807988 123.410021,19.4225408 105.572031,8.1699057 C75.4465694,24.8872377 53.5096019,64.89976 53.7230816,111.172633 C53.9212393,154.124378 72.3695886,191.485832 99.2344582,210.219803 C122.181268,198.023806 175.588737,168.961762 188.644055,161.90732 Z" fill="#004FA3" transform="translate(122.525235, 109.194854) rotate(-61.615426) translate(-122.525235, -109.194854) "></path>
                </g>
                <g transform="translate(60.344037, 106.225490)" fill="#FFFFFF">
                    <path d="M22.0583486,20.5766352 C23.9122252,21.4849615 29.173945,24.2630307 29.173945,30.4362745 C29.173945,39.4705492 23.2245407,41.7160918 15.6543119,41.7160918 C7.21940679,41.7160918 2.1346789,37.5392157 0.711559633,36.1186275 L4.98091743,31.1465686 C6.4040367,32.5671569 11.2186164,35.5536787 15.6543119,35.5536787 C20.0900074,35.5536787 22.7699083,34.2434365 22.7699083,31.1465686 C22.7699083,29.2668358 21.1956679,27.7786966 20.1949069,27.0518236 C18.9952726,26.2354315 15.5842485,24.7591701 9.96183486,22.6230392 C9.25027523,21.9127451 1.42311927,19.6623866 1.42311927,11.9686275 C1.42311927,2.03783104 12.8080734,1.31421569 14.9427523,1.31421569 C17.0774312,1.31421569 22.7699083,1.31421569 27.7508257,6.28627451 L24.1930275,10.5480392 C22.7699083,9.12745098 18.4883902,6.99656863 14.9427523,6.99656863 C11.3971143,6.99656863 8.5387156,8.4567945 8.5387156,11.9686275 C8.5387156,15.5680415 12.0162514,16.4663973 12.8080734,16.9406863 C14.2311927,17.4835391 17.3146177,18.6955221 22.0583486,20.5766352 Z" id="Path"></path>
                    <path d="M34.866422,0.603921569 L48.386055,0.603921569 C50.5207339,0.603921569 63.3288073,0.603921569 63.3288073,12.6789216 C63.3288073,21.8398831 57.6363303,24.0436275 55.5016514,24.7539216 L65.4634862,41.8009804 L56.9247706,41.8009804 L48.386055,26.1745098 L41.9820183,26.1745098 L41.9820183,41.8009804 L34.866422,41.8009804 L34.866422,0.603921569 Z M41.9820183,19.7818627 L47.6744954,19.7818627 C50.5207339,19.7818627 56.213211,19.7818627 56.213211,13.3892157 C56.213211,6.99656863 50.5207339,6.99656863 47.6744954,6.99656863 L41.9820183,6.99656863 L41.9820183,19.7818627 Z" id="Shape" fill-rule="nonzero"></path>
                    <path d="M69.0212844,0.603921569 L76.8484404,0.603921569 C83.0152905,18.5980392 86.3359021,28.0686275 86.8102752,29.0156863 C87.2846483,28.0686275 90.6052599,18.5980392 96.7721101,0.603921569 L105.310826,0.603921569 L105.310826,41.0906863 L98.906789,41.0906863 L98.906789,9.8377451 L88.9449541,37.5392157 L84.6755963,37.5392157 L74.7137615,9.8377451 L74.7137615,41.0906863 L69.0212844,41.0906863 L69.0212844,0.603921569 Z" id="Path"></path>
                </g>
                <path d="M190.63633,171.628144 L112.995954,215.811694 L36.0741284,171.624088 L36.0741284,82.5214998 L112.995954,38.3338943 L190.63633,82.517444 L190.63633,171.628144 Z M187.63633,169.88362 L187.63633,84.2619678 L113.002945,41.7896351 L39.0741284,84.2579119 L39.0741284,169.887676 L113.002945,212.355953 L187.63633,169.88362 Z" id="Path" fill="#FFFFFF" fill-rule="nonzero"></path>
            </g>
        </g>
    </g>
</svg>
